<?xml version="1.0" encoding="UTF-8"?>
<svg xmlns="http://www.w3.org/2000/svg" viewBox="0 0 40 40">
  <g id="uuid-9e5d8732-13b2-4c02-be01-ecb7079d5984" data-name="Background Light">
    <g id="uuid-d30fe4a4-f6c3-4b69-a900-da6be4a8db45" data-name="&amp;lt;Ellipse&amp;gt;">
      <circle cx="20" cy="20" r="18.75" fill="#4f5b94"/>
      <circle cx="20" cy="20" r="18.75" fill="none" stroke="#231f20" stroke-width=".5"/>
      <circle cx="20" cy="20" r="18.75" fill="none" stroke="#231f20"/>
    </g>
  </g>
  <g id="uuid-cca3ba2a-814c-4331-94b6-b6995534d62b" data-name="Criss Cross">
    <path d="M39,20c0,10.49-8.51,19-19,19S1,30.49,1,20" fill="#4f5b94"/>
    <path d="M1,20C1,9.51,9.51,1,20,1s19,8.51,19,19" fill="#9e9fc7"/>
    <path d="M20,20H1s-.27-7.81,5.7-13.57l13.3,13.57Z" fill="#4f5b94"/>
    <path d="M20,20l13.44-13.44s5.72,5.33,5.56,13.63l-19-.19Z" fill="#4f5b94"/>
    <g>
      <g>
        <path d="M20,20h19s.27,7.81-5.7,13.57l-13.3-13.57Z" fill="#292622"/>
        <path d="M20,20l-13.44,13.44S.85,28.1,1,19.81l19,.19Z" fill="#292622"/>
      </g>
      <g>
        <path d="M20,20h19s.27,7.81-5.7,13.57l-13.3-13.57Z" fill="#9e9fc7"/>
        <path d="M20,20l-13.44,13.44S.85,28.1,1,19.81l19,.19Z" fill="#9e9fc7"/>
      </g>
    </g>
  </g>
  <g id="uuid-26f50e16-5f2b-45aa-8b0b-bfef71cdce1c" data-name="X Light">
    <g id="uuid-0e2a1261-ce2c-4402-8f6c-0d95c41f97b3" data-name="X">
      <path d="M30.04,36.37l-5.59-7.25c-2.27-2.77-3.66-4.59-5.02-6.48h-.14c-1.22,1.91-2.49,3.66-4.7,6.5l-5.25,7.23H2.85l13.35-16.62L3.36,3.55h6.52l5.8,7.71c1.61,2.11,2.82,3.77,4.03,5.55h.14c1.24-1.95,2.38-3.46,3.98-5.55l5.92-7.71h6.53l-13.31,15.99,13.62,16.82h-6.55Z" fill="#4f5b94"/>
      <path d="M30.04,36.37l-5.59-7.25c-2.27-2.77-3.66-4.59-5.02-6.48h-.14c-1.22,1.91-2.49,3.66-4.7,6.5l-5.25,7.23H2.85l13.35-16.62L3.36,3.55h6.52l5.8,7.71c1.61,2.11,2.82,3.77,4.03,5.55h.14c1.24-1.95,2.38-3.46,3.98-5.55l5.92-7.71h6.53l-13.31,15.99,13.62,16.82h-6.55Z" fill="none" stroke="#231f20" stroke-width=".25"/>
    </g>
  </g>
  <g id="uuid-59611432-981c-4e3d-98fa-3895fbfa7421" data-name="Layer 3">
    <g>
      <path d="M10.51,14.78c1.67,0,2.33.17,2.98.77.9.81,1.22,2.13.92,3.83-.23,1.28-.82,2.38-1.73,3.17-.93.81-1.93,1.15-3.41,1.15h-2.16l-.59,3.35h-2.45l2.16-12.27h4.28ZM7.44,21.8h1.5c1.68,0,2.68-.86,2.99-2.6.28-1.61-.4-2.51-1.9-2.51h-1.68l-.9,5.11Z" fill="#231f20" stroke="#fff" stroke-miterlimit="10" stroke-width=".25"/>
      <path d="M19.48,14.78h2.51c2.59-.05,3.46.92,3.07,3.35l-.98,5.57h-2.45l.89-5.07c.31-1.52.01-1.94-1.4-1.94h-1.98l-1.24,7.02h-2.45l2.15-12.22h2.45l-.58,3.3Z" fill="#231f20" stroke="#fff" stroke-miterlimit="10" stroke-width=".25"/>
      <path d="M32.25,14.78c1.67,0,2.33.17,2.98.77.9.81,1.22,2.13.92,3.83-.23,1.28-.82,2.38-1.73,3.17-.93.81-1.93,1.15-3.41,1.15h-2.16l-.59,3.35h-2.45l2.16-12.27h4.28ZM29.18,21.8h1.5c1.68,0,2.68-.86,2.99-2.6.28-1.61-.4-2.51-1.9-2.51h-1.68l-.9,5.11Z" fill="#231f20" stroke="#fff" stroke-miterlimit="10" stroke-width=".25"/>
    </g>
  </g>
</svg>